<svg xmlns="http://www.w3.org/2000/svg" width="1440" height="1160" viewBox="0 0 1440 1160" fill="none"><mask id="mask0_401_4091" style="mask-type:alpha" maskUnits="userSpaceOnUse" x="0" y="0" width="1440" height="1160"><rect width="1440" height="1160" fill="url(#paint0_linear_401_4091)"></rect></mask><g mask="url(#mask0_401_4091)"><rect width="1440" height="1517" fill="#0F0928"></rect><g opacity="0.6" filter="url(#filter0_f_401_4091)"><ellipse cx="319.5" cy="645" rx="578.5" ry="386" fill="#5E19F0"></ellipse></g><g opacity="0.6" filter="url(#filter1_f_401_4091)"><circle cx="-128" cy="795.001" r="386" fill="#3719F0"></circle></g><g filter="url(#filter2_f_401_4091)"><path d="M117.341 587.087C-71.2944 585.559 -320.263 664.987 -288.187 1127.81C237.753 1158.87 1297.58 1220.37 1329.35 1217.93C1369.06 1214.87 1673.78 806.278 1685.23 794.822C1696.69 783.366 1747.86 679.498 1419.46 412.192C1091.07 144.887 813.844 350.521 621.389 485.511C428.935 620.5 305.977 588.614 117.341 587.087Z" fill="#6849E1"></path></g><mask id="mask1_401_4091" style="mask-type:alpha" maskUnits="userSpaceOnUse" x="556" y="266" width="854" height="740"><ellipse cx="982.809" cy="636.133" rx="484.544" ry="289.781" transform="rotate(-36.2854 982.809 636.133)" fill="url(#paint1_radial_401_4091)"></ellipse></mask><g mask="url(#mask1_401_4091)"><path d="M558.482 895.24C498.034 918.441 484.753 942.208 448.996 997.91L1030.83 1214.07C1179.09 988.51 1436.05 556.562 1334.02 515.727C1227.25 472.998 1064.48 490.795 964.663 539.708C864.843 588.62 784.399 751.922 746.607 810.04C711.594 863.886 618.93 872.039 558.482 895.24Z" fill="#7C7AEA"></path><g filter="url(#filter3_f_401_4091)"><path d="M558.482 894.24C498.034 917.441 484.753 941.208 448.996 996.91L1030.83 1213.07C1179.09 987.51 1399.53 489.835 1297.5 449C1216.81 416.71 1070.17 494.323 994.996 538.921C970.694 553.339 987.891 569.68 972.663 570.708C861.755 578.194 784.399 750.922 746.607 809.04C711.594 862.886 618.93 871.039 558.482 894.24Z" fill="#7C7AEA"></path></g><g filter="url(#filter4_f_401_4091)"><path d="M542.482 887.24C482.034 910.441 468.753 934.208 432.996 989.91L1030.83 1214.07C1179.09 988.51 1308.05 532.563 1206.02 491.728C1110.31 453.424 1054.89 498.902 977.496 543.346C968.555 548.481 983.001 550.642 972.663 555.708C872.843 604.62 768.399 743.922 730.607 802.04C695.594 855.886 602.93 864.039 542.482 887.24Z" fill="#7C7AEA"></path></g><g filter="url(#filter5_f_401_4091)"><path d="M526.482 879.24C466.034 902.441 452.753 926.208 416.996 981.91L1030.83 1214.07C1179.09 988.51 1460.05 476.563 1358.01 435.728C1271.9 401.262 1119.55 484.995 1025 521.906C1002.33 530.756 988.967 548.248 969.663 557.708C869.843 606.62 752.399 735.922 714.607 794.04C679.594 847.886 586.93 856.039 526.482 879.24Z" fill="#7C7AEA"></path></g><g filter="url(#filter6_f_401_4091)"><path d="M475.482 857.391C415.034 880.591 401.753 904.358 365.996 960.06L995.833 1208.22C1144.09 982.661 1273.05 526.714 1171.01 485.879C1091.88 454.208 1031.71 519.372 993.996 542.801C980.828 550.981 1018.59 565 989.996 565C879.496 565 900.385 681.309 718.496 758C659.314 782.953 535.93 834.19 475.482 857.391Z" fill="#7C7AEA"></path></g></g><g opacity="0.6" filter="url(#filter7_f_401_4091)"><circle cx="1097.5" cy="780.501" r="164.5" fill="#B819F0"></circle></g><g opacity="0.3" filter="url(#filter8_f_401_4091)"><ellipse cx="370.5" cy="784.501" rx="368.5" ry="164.5" fill="black"></ellipse></g><g opacity="0.6" filter="url(#filter9_f_401_4091)"><ellipse cx="714.806" cy="737.081" rx="164.5" ry="48.7174" transform="rotate(-41.2443 714.806 737.081)" fill="#28009B"></ellipse></g><mask id="mask2_401_4091" style="mask-type:alpha" maskUnits="userSpaceOnUse" x="-885" y="337" width="1472" height="975"><path d="M-671.32 1311.69C-726.282 994.495 -880.989 517.289 -885.002 501.715L586.676 337.846L516.649 1103.83L-671.32 1311.69Z" fill="url(#paint2_linear_401_4091)"></path></mask><g mask="url(#mask2_401_4091)"><path d="M-231.936 564.701C-97.9486 541.258 28.092 598.063 40.0945 666.661C52.097 735.259 13.6096 834.771 -130.147 859.924C-201.386 872.389 -279.859 933.379 -370.474 914.027C-462.716 894.328 -459.495 797.341 -465.55 762.737C-477.552 694.139 -365.923 588.145 -231.936 564.701Z" fill="#7371FF"></path><g filter="url(#filter10_f_401_4091)"><path d="M-232.515 570.857C-88.8169 545.715 25.5321 593.491 35.849 652.456C46.166 711.42 5.48879 798.287 -138.209 823.43C-209.419 835.889 -288.716 891.967 -378.456 877.407C-469.809 862.585 -464.297 778.738 -469.501 748.993C-479.818 690.029 -376.213 596 -232.515 570.857Z" fill="#7371FF"></path></g><g filter="url(#filter11_f_401_4091)"><path d="M-228.161 570.097C-67.103 541.917 62.3497 602.836 75.0692 675.532C87.7887 748.228 43.7148 854.261 -117.343 882.441C-197.155 896.405 -284.043 970.619 -385.201 951.009C-488.175 931.047 -484.65 821.909 -491.067 785.237C-503.786 712.541 -389.219 598.277 -228.161 570.097Z" fill="#7371FF"></path></g><g filter="url(#filter12_f_401_4091)"><path d="M-208.065 575.454C-6.0966 558.493 175.112 623.961 189.998 709.042C204.885 794.124 120.052 903.76 -73.1048 937.556C-168.823 954.304 -275.646 1068.56 -396.781 1046.09C-520.092 1023.22 -514.073 902.571 -521.582 859.652C-536.469 774.57 -442.034 595.101 -208.065 575.454Z" fill="#7371FF"></path></g><g filter="url(#filter13_f_401_4091)"><path d="M-135.048 598.164C72.9313 561.775 271.159 640.066 285.713 723.251C300.268 806.435 207.331 915.376 -0.647959 951.766C-103.712 969.799 -223.296 1023.44 -352.993 1003.44C-485.019 983.082 -476.527 864.67 -483.869 822.707C-498.423 739.523 -343.027 634.554 -135.048 598.164Z" fill="#7371FF"></path></g><g filter="url(#filter14_f_401_4091)"><path d="M-48.2874 617.205C166.64 579.6 371.286 659.344 386.173 744.425C401.06 829.507 304.851 941.134 89.9237 978.739C-16.5833 997.374 -140.221 1052.47 -274.174 1032.24C-410.533 1011.65 -401.546 890.486 -409.056 847.567C-423.942 762.485 -263.215 654.811 -48.2874 617.205Z" fill="#7371FF"></path></g><g filter="url(#filter15_f_401_4091)"><path d="M-212.309 631.96C-24.2474 599.055 157.27 682.846 172.157 767.927C187.043 853.009 104.873 962.179 -83.1889 995.084C-176.383 1011.39 -285.577 1053.82 -403.712 1030.82C-523.969 1007.42 -518.644 886.891 -526.154 843.972C-541.04 758.89 -400.371 664.865 -212.309 631.96Z" fill="#7371FF"></path></g></g></g><defs><filter id="filter0_f_401_4091" x="-671" y="-153" width="1981" height="1596" filterUnits="userSpaceOnUse" color-interpolation-filters="sRGB"><feGaussianBlur stdDeviation="206"></feGaussianBlur></filter><filter id="filter1_f_401_4091" x="-926" y="-2.99939" width="1596" height="1596" filterUnits="userSpaceOnUse" color-interpolation-filters="sRGB"><feGaussianBlur stdDeviation="206"></feGaussianBlur></filter><filter id="filter2_f_401_4091" x="-447" y="125.999" width="2298" height="1248" filterUnits="userSpaceOnUse" color-interpolation-filters="sRGB"><feGaussianBlur stdDeviation="78"></feGaussianBlur></filter><filter id="filter3_f_401_4091" x="428.996" y="421.351" width="914.559" height="811.722" filterUnits="userSpaceOnUse" color-interpolation-filters="sRGB"><feGaussianBlur stdDeviation="10"></feGaussianBlur></filter><filter id="filter4_f_401_4091" x="404.996" y="449.348" width="865.543" height="792.724" filterUnits="userSpaceOnUse" color-interpolation-filters="sRGB"><feGaussianBlur stdDeviation="14"></feGaussianBlur></filter><filter id="filter5_f_401_4091" x="380.996" y="391.58" width="1034.83" height="858.493" filterUnits="userSpaceOnUse" color-interpolation-filters="sRGB"><feGaussianBlur stdDeviation="18"></feGaussianBlur></filter><filter id="filter6_f_401_4091" x="313.996" y="425.363" width="945.539" height="834.86" filterUnits="userSpaceOnUse" color-interpolation-filters="sRGB"><feGaussianBlur stdDeviation="26"></feGaussianBlur></filter><filter id="filter7_f_401_4091" x="721" y="404.001" width="753" height="753" filterUnits="userSpaceOnUse" color-interpolation-filters="sRGB"><feGaussianBlur stdDeviation="106"></feGaussianBlur></filter><filter id="filter8_f_401_4091" x="-210" y="408.001" width="1161" height="753" filterUnits="userSpaceOnUse" color-interpolation-filters="sRGB"><feGaussianBlur stdDeviation="106"></feGaussianBlur></filter><filter id="filter9_f_401_4091" x="374.984" y="410.58" width="679.645" height="653.001" filterUnits="userSpaceOnUse" color-interpolation-filters="sRGB"><feGaussianBlur stdDeviation="106"></feGaussianBlur></filter><filter id="filter10_f_401_4091" x="-477.747" y="556.458" width="522.65" height="330.883" filterUnits="userSpaceOnUse" color-interpolation-filters="sRGB"><feGaussianBlur stdDeviation="3.76999"></feGaussianBlur></filter><filter id="filter11_f_401_4091" x="-518.421" y="536.68" width="621.94" height="443.997" filterUnits="userSpaceOnUse" color-interpolation-filters="sRGB"><feGaussianBlur stdDeviation="13.195"></feGaussianBlur></filter><filter id="filter12_f_401_4091" x="-560.794" y="535.064" width="790.154" height="551.644" filterUnits="userSpaceOnUse" color-interpolation-filters="sRGB"><feGaussianBlur stdDeviation="18.8499"></feGaussianBlur></filter><filter id="filter13_f_401_4091" x="-586.602" y="487.217" width="975.579" height="622.414" filterUnits="userSpaceOnUse" color-interpolation-filters="sRGB"><feGaussianBlur stdDeviation="50.8948"></feGaussianBlur></filter><filter id="filter14_f_401_4091" x="-662.601" y="355.054" width="1302.86" height="934.174" filterUnits="userSpaceOnUse" color-interpolation-filters="sRGB"><feGaussianBlur stdDeviation="126.295"></feGaussianBlur></filter><filter id="filter15_f_401_4091" x="-644.104" y="507.769" width="934.841" height="646.608" filterUnits="userSpaceOnUse" color-interpolation-filters="sRGB"><feGaussianBlur stdDeviation="58.4348"></feGaussianBlur></filter><linearGradient id="paint0_linear_401_4091" x1="720" y1="607.202" x2="720" y2="1160" gradientUnits="userSpaceOnUse"><stop></stop><stop offset="1" stop-opacity="0"></stop></linearGradient><radialGradient id="paint1_radial_401_4091" cx="0" cy="0" r="1" gradientUnits="userSpaceOnUse" gradientTransform="translate(1065.85 589.73) rotate(103.875) scale(346.288 557.278)"><stop offset="0.120131" stop-color="#C4C4C4"></stop><stop offset="0.692585" stop-color="#C4C4C4" stop-opacity="0"></stop></radialGradient><linearGradient id="paint2_linear_401_4091" x1="-283.208" y1="604.191" x2="-175.466" y2="1123.65" gradientUnits="userSpaceOnUse"><stop stop-color="#C4C4C4"></stop><stop offset="1" stop-color="#C4C4C4" stop-opacity="0"></stop></linearGradient></defs></svg>